<svg xmlns="http://www.w3.org/2000/svg" width="192" height="120" viewBox="0 0 192 120" role="img">
<title>n = 5, a(5) = 9</title>
<rect width="192" height="120" fill="white"/>
<g transform="translate(6,6)">
<g fill="#EEF2F6" stroke="#CFD8E0" stroke-width="1.0">
<rect x="0" y="0" width="36" height="36"/>
<rect x="36" y="0" width="36" height="36"/>
<rect x="72" y="0" width="36" height="36"/>
<rect x="108" y="0" width="36" height="36"/>
<rect x="144" y="0" width="36" height="36"/>
<rect x="0" y="36" width="36" height="36"/>
<rect x="36" y="36" width="36" height="36"/>
<rect x="72" y="36" width="36" height="36"/>
<rect x="108" y="36" width="36" height="36"/>
<rect x="144" y="36" width="36" height="36"/>
<rect x="0" y="72" width="36" height="36"/>
<rect x="36" y="72" width="36" height="36"/>
<rect x="72" y="72" width="36" height="36"/>
<rect x="108" y="72" width="36" height="36"/>
<rect x="144" y="72" width="36" height="36"/>
</g>
<g fill="#4A90D9" stroke="#1A4A80" stroke-width="1.5">
<rect x="0" y="0" width="36" height="36"/>
<rect x="36" y="0" width="36" height="36"/>
<rect x="72" y="0" width="36" height="36"/>
<rect x="0" y="36" width="36" height="36"/>
<rect x="36" y="36" width="36" height="36"/>
<rect x="72" y="36" width="36" height="36"/>
<rect x="108" y="36" width="36" height="36"/>
<rect x="144" y="36" width="36" height="36"/>
<rect x="72" y="72" width="36" height="36"/>
</g>
</g>
</svg>
