<svg xmlns="http://www.w3.org/2000/svg" width="264" height="156" viewBox="0 0 264 156" role="img">
<title>n = 7, a(7) = 17</title>
<rect width="264" height="156" fill="white"/>
<g transform="translate(6,6)">
<g fill="#EEF2F6" stroke="#CFD8E0" stroke-width="1.0">
<rect x="0" y="0" width="36" height="36"/>
<rect x="36" y="0" width="36" height="36"/>
<rect x="72" y="0" width="36" height="36"/>
<rect x="108" y="0" width="36" height="36"/>
<rect x="144" y="0" width="36" height="36"/>
<rect x="180" y="0" width="36" height="36"/>
<rect x="216" y="0" width="36" height="36"/>
<rect x="0" y="36" width="36" height="36"/>
<rect x="36" y="36" width="36" height="36"/>
<rect x="72" y="36" width="36" height="36"/>
<rect x="108" y="36" width="36" height="36"/>
<rect x="144" y="36" width="36" height="36"/>
<rect x="180" y="36" width="36" height="36"/>
<rect x="216" y="36" width="36" height="36"/>
<rect x="0" y="72" width="36" height="36"/>
<rect x="36" y="72" width="36" height="36"/>
<rect x="72" y="72" width="36" height="36"/>
<rect x="108" y="72" width="36" height="36"/>
<rect x="144" y="72" width="36" height="36"/>
<rect x="180" y="72" width="36" height="36"/>
<rect x="216" y="72" width="36" height="36"/>
<rect x="0" y="108" width="36" height="36"/>
<rect x="36" y="108" width="36" height="36"/>
<rect x="72" y="108" width="36" height="36"/>
<rect x="108" y="108" width="36" height="36"/>
<rect x="144" y="108" width="36" height="36"/>
<rect x="180" y="108" width="36" height="36"/>
<rect x="216" y="108" width="36" height="36"/>
</g>
<g fill="#4A90D9" stroke="#1A4A80" stroke-width="1.5">
<rect x="108" y="0" width="36" height="36"/>
<rect x="36" y="36" width="36" height="36"/>
<rect x="72" y="36" width="36" height="36"/>
<rect x="108" y="36" width="36" height="36"/>
<rect x="144" y="36" width="36" height="36"/>
<rect x="0" y="72" width="36" height="36"/>
<rect x="36" y="72" width="36" height="36"/>
<rect x="72" y="72" width="36" height="36"/>
<rect x="108" y="72" width="36" height="36"/>
<rect x="144" y="72" width="36" height="36"/>
<rect x="180" y="72" width="36" height="36"/>
<rect x="216" y="72" width="36" height="36"/>
<rect x="0" y="108" width="36" height="36"/>
<rect x="36" y="108" width="36" height="36"/>
<rect x="72" y="108" width="36" height="36"/>
<rect x="108" y="108" width="36" height="36"/>
<rect x="144" y="108" width="36" height="36"/>
</g>
</g>
</svg>
