<svg xmlns="http://www.w3.org/2000/svg" width="372" height="192" viewBox="0 0 372 192" role="img">
<title>n = 10, a(10) = 31</title>
<rect width="372" height="192" fill="white"/>
<g transform="translate(6,6)">
<g fill="#EEF2F6" stroke="#CFD8E0" stroke-width="1.0">
<rect x="0" y="0" width="36" height="36"/>
<rect x="36" y="0" width="36" height="36"/>
<rect x="72" y="0" width="36" height="36"/>
<rect x="108" y="0" width="36" height="36"/>
<rect x="144" y="0" width="36" height="36"/>
<rect x="180" y="0" width="36" height="36"/>
<rect x="216" y="0" width="36" height="36"/>
<rect x="252" y="0" width="36" height="36"/>
<rect x="288" y="0" width="36" height="36"/>
<rect x="324" y="0" width="36" height="36"/>
<rect x="0" y="36" width="36" height="36"/>
<rect x="36" y="36" width="36" height="36"/>
<rect x="72" y="36" width="36" height="36"/>
<rect x="108" y="36" width="36" height="36"/>
<rect x="144" y="36" width="36" height="36"/>
<rect x="180" y="36" width="36" height="36"/>
<rect x="216" y="36" width="36" height="36"/>
<rect x="252" y="36" width="36" height="36"/>
<rect x="288" y="36" width="36" height="36"/>
<rect x="324" y="36" width="36" height="36"/>
<rect x="0" y="72" width="36" height="36"/>
<rect x="36" y="72" width="36" height="36"/>
<rect x="72" y="72" width="36" height="36"/>
<rect x="108" y="72" width="36" height="36"/>
<rect x="144" y="72" width="36" height="36"/>
<rect x="180" y="72" width="36" height="36"/>
<rect x="216" y="72" width="36" height="36"/>
<rect x="252" y="72" width="36" height="36"/>
<rect x="288" y="72" width="36" height="36"/>
<rect x="324" y="72" width="36" height="36"/>
<rect x="0" y="108" width="36" height="36"/>
<rect x="36" y="108" width="36" height="36"/>
<rect x="72" y="108" width="36" height="36"/>
<rect x="108" y="108" width="36" height="36"/>
<rect x="144" y="108" width="36" height="36"/>
<rect x="180" y="108" width="36" height="36"/>
<rect x="216" y="108" width="36" height="36"/>
<rect x="252" y="108" width="36" height="36"/>
<rect x="288" y="108" width="36" height="36"/>
<rect x="324" y="108" width="36" height="36"/>
<rect x="0" y="144" width="36" height="36"/>
<rect x="36" y="144" width="36" height="36"/>
<rect x="72" y="144" width="36" height="36"/>
<rect x="108" y="144" width="36" height="36"/>
<rect x="144" y="144" width="36" height="36"/>
<rect x="180" y="144" width="36" height="36"/>
<rect x="216" y="144" width="36" height="36"/>
<rect x="252" y="144" width="36" height="36"/>
<rect x="288" y="144" width="36" height="36"/>
<rect x="324" y="144" width="36" height="36"/>
</g>
<g fill="#4A90D9" stroke="#1A4A80" stroke-width="1.5">
<rect x="252" y="0" width="36" height="36"/>
<rect x="288" y="0" width="36" height="36"/>
<rect x="324" y="0" width="36" height="36"/>
<rect x="216" y="36" width="36" height="36"/>
<rect x="252" y="36" width="36" height="36"/>
<rect x="288" y="36" width="36" height="36"/>
<rect x="324" y="36" width="36" height="36"/>
<rect x="144" y="72" width="36" height="36"/>
<rect x="180" y="72" width="36" height="36"/>
<rect x="216" y="72" width="36" height="36"/>
<rect x="252" y="72" width="36" height="36"/>
<rect x="288" y="72" width="36" height="36"/>
<rect x="324" y="72" width="36" height="36"/>
<rect x="0" y="108" width="36" height="36"/>
<rect x="36" y="108" width="36" height="36"/>
<rect x="72" y="108" width="36" height="36"/>
<rect x="108" y="108" width="36" height="36"/>
<rect x="144" y="108" width="36" height="36"/>
<rect x="180" y="108" width="36" height="36"/>
<rect x="216" y="108" width="36" height="36"/>
<rect x="252" y="108" width="36" height="36"/>
<rect x="288" y="108" width="36" height="36"/>
<rect x="324" y="108" width="36" height="36"/>
<rect x="72" y="144" width="36" height="36"/>
<rect x="108" y="144" width="36" height="36"/>
<rect x="144" y="144" width="36" height="36"/>
<rect x="180" y="144" width="36" height="36"/>
<rect x="216" y="144" width="36" height="36"/>
<rect x="252" y="144" width="36" height="36"/>
<rect x="288" y="144" width="36" height="36"/>
<rect x="324" y="144" width="36" height="36"/>
</g>
</g>
</svg>
